<svg width="31" height="57" viewBox="0 0 31 57" fill="none" xmlns="http://www.w3.org/2000/svg">
<g id="fa:dollar" clip-path="url(#clip0_7_1120)">
<path id="Vector" d="M30.0924 37.6925C30.0924 40.9369 29.0375 43.7308 26.9275 46.0739C24.8176 48.4171 22.0768 49.8644 18.7052 50.4157V55.9821C18.7052 56.279 18.6097 56.5229 18.4189 56.7137C18.228 56.9046 17.9842 57 17.6873 57H13.3932C13.1176 57 12.879 56.8993 12.6775 56.6978C12.4761 56.4964 12.3754 56.2578 12.3754 55.9821V50.4157C10.9758 50.2249 9.62397 49.8962 8.31984 49.4297C7.01571 48.9632 5.93954 48.4914 5.09133 48.0142C4.24311 47.5371 3.45851 47.0282 2.73753 46.4874C2.01655 45.9467 1.52352 45.5491 1.25846 45.2946C0.993391 45.0402 0.807844 44.8493 0.701817 44.7221C0.341326 44.2768 0.320121 43.8421 0.638201 43.418L3.91443 39.1239C4.06287 38.9118 4.30673 38.7846 4.64601 38.7422C4.96409 38.6998 5.21856 38.7952 5.40941 39.0285L5.47302 39.0921C7.86923 41.1914 10.4457 42.5167 13.2024 43.0681C13.987 43.2377 14.7716 43.3225 15.5562 43.3225C17.2738 43.3225 18.7847 42.8666 20.0888 41.9548C21.3929 41.043 22.045 39.7494 22.045 38.0742C22.045 37.4805 21.886 36.9185 21.5679 36.3884C21.2498 35.8583 20.8946 35.4129 20.5023 35.0525C20.11 34.692 19.4898 34.2944 18.6416 33.8597C17.7933 33.4249 17.0936 33.0857 16.5422 32.8418C15.9909 32.5979 15.1427 32.2533 13.9976 31.808C13.1706 31.4688 12.5185 31.2037 12.0414 31.0128C11.5643 30.822 10.9122 30.541 10.0852 30.1699C9.25818 29.7988 8.59551 29.4701 8.09719 29.1839C7.59886 28.8976 6.99981 28.5212 6.30003 28.0547C5.60026 27.5882 5.03301 27.1376 4.5983 26.7028C4.16359 26.2681 3.70238 25.7486 3.21465 25.1443C2.72693 24.5399 2.35053 23.9249 2.08547 23.2994C1.8204 22.6738 1.59774 21.9688 1.4175 21.1842C1.23725 20.3996 1.14713 19.5725 1.14713 18.7031C1.14713 15.7768 2.18619 13.2109 4.26432 11.0056C6.34244 8.80022 9.04613 7.37946 12.3754 6.7433V1.01786C12.3754 0.742188 12.4761 0.503627 12.6775 0.302176C12.879 0.100725 13.1176 0 13.3932 0H17.6873C17.9842 0 18.228 0.0954241 18.4189 0.286272C18.6097 0.477121 18.7052 0.720982 18.7052 1.01786V6.61607C19.9139 6.7433 21.0855 6.98717 22.22 7.34766C23.3544 7.70815 24.2769 8.06334 24.9873 8.41323C25.6976 8.76311 26.3709 9.16072 27.0071 9.60603C27.6432 10.0513 28.0567 10.3588 28.2476 10.5285C28.4384 10.6981 28.5975 10.8465 28.7247 10.9738C29.0852 11.3555 29.1382 11.7584 28.8837 12.1825L26.3073 16.8265C26.1376 17.1445 25.8938 17.3142 25.5757 17.3354C25.2788 17.399 24.9926 17.3248 24.7169 17.1127C24.6533 17.0491 24.4995 16.9219 24.2557 16.731C24.0118 16.5402 23.5983 16.2592 23.0152 15.8881C22.432 15.517 21.8118 15.1777 21.1544 14.8703C20.497 14.5628 19.7071 14.2871 18.7847 14.0432C17.8623 13.7994 16.9557 13.6775 16.0651 13.6775C14.0506 13.6775 12.4072 14.1334 11.1349 15.0452C9.86253 15.957 9.22637 17.1339 9.22637 18.5759C9.22637 19.1272 9.31649 19.6362 9.49674 20.1027C9.67698 20.5692 9.98976 21.0092 10.4351 21.4227C10.8804 21.8362 11.2992 22.1861 11.6915 22.4724C12.0838 22.7586 12.6775 23.0873 13.4727 23.4584C14.2679 23.8295 14.9094 24.1158 15.3971 24.3172C15.8849 24.5187 16.627 24.8103 17.6237 25.192C18.7476 25.6161 19.6064 25.9501 20.2001 26.1939C20.7939 26.4378 21.5997 26.8089 22.6176 27.3072C23.6354 27.8055 24.4359 28.2561 25.0191 28.659C25.6022 29.0619 26.2596 29.5921 26.9912 30.2494C27.7227 30.9068 28.2847 31.5801 28.677 32.2693C29.0693 32.9584 29.4033 33.7695 29.6789 34.7026C29.9546 35.6356 30.0924 36.6323 30.0924 37.6925Z" fill="#090B20"/>
</g>
<defs>
<clipPath id="clip0_7_1120">
<rect width="30.54" height="57" fill="white"/>
</clipPath>
</defs>
</svg>
