<svg width="98" height="44" viewBox="0 0 98 44" fill="none" xmlns="http://www.w3.org/2000/svg">
<g filter="url(#filter0_d_7_1293)">
<circle cx="22" cy="20" r="16" fill="#3944C4"/>
<circle cx="22" cy="20" r="15.2" stroke="#3944C4" stroke-width="1.6"/>
</g>
<path d="M31.6702 14.45C31.0302 12.28 29.2202 10.47 27.0502 9.83C25.4002 9.35 24.2602 9.39 23.4702 9.98C22.5202 10.69 22.4102 11.97 22.4102 12.88V15.37C22.4102 17.83 23.5302 19.08 25.7302 19.08H28.6002C29.5002 19.08 30.7902 18.97 31.5002 18.02C32.1102 17.24 32.1602 16.1 31.6702 14.45Z" fill="white"/>
<path d="M28.9099 20.86C28.6499 20.56 28.2699 20.39 27.8799 20.39H24.2999C22.5399 20.39 21.1099 18.96 21.1099 17.2V13.62C21.1099 13.23 20.9399 12.85 20.6399 12.59C20.3499 12.33 19.9499 12.21 19.5699 12.26C17.2199 12.56 15.0599 13.85 13.6499 15.79C12.2299 17.74 11.7099 20.12 12.1599 22.5C12.8099 25.94 15.5599 28.69 19.0099 29.34C19.5599 29.45 20.1099 29.5 20.6599 29.5C22.4699 29.5 24.2199 28.94 25.7099 27.85C27.6499 26.44 28.9399 24.28 29.2399 21.93C29.2899 21.54 29.1699 21.15 28.9099 20.86Z" fill="white"/>
<path d="M52.31 19.81C52.8033 19.81 53.2333 19.75 53.6 19.63C53.9667 19.5033 54.27 19.3267 54.51 19.1C54.7567 18.8667 54.94 18.5867 55.06 18.26C55.18 17.9267 55.24 17.5567 55.24 17.15C55.24 16.7633 55.18 16.4133 55.06 16.1C54.94 15.7867 54.76 15.52 54.52 15.3C54.28 15.08 53.9767 14.9133 53.61 14.8C53.2433 14.68 52.81 14.62 52.31 14.62H50.3V19.81H52.31ZM52.31 12.54C53.2767 12.54 54.1133 12.6533 54.82 12.88C55.5267 13.1067 56.11 13.4233 56.57 13.83C57.03 14.2367 57.37 14.7233 57.59 15.29C57.8167 15.8567 57.93 16.4767 57.93 17.15C57.93 17.85 57.8133 18.4933 57.58 19.08C57.3467 19.66 56.9967 20.16 56.53 20.58C56.0633 21 55.4767 21.3267 54.77 21.56C54.07 21.7933 53.25 21.91 52.31 21.91H50.3V27H47.61V12.54H52.31ZM64.7103 22.62C63.997 22.6533 63.397 22.7167 62.9103 22.81C62.4236 22.8967 62.0336 23.01 61.7403 23.15C61.447 23.29 61.237 23.4533 61.1103 23.64C60.9836 23.8267 60.9203 24.03 60.9203 24.25C60.9203 24.6833 61.047 24.9933 61.3003 25.18C61.5603 25.3667 61.897 25.46 62.3103 25.46C62.817 25.46 63.2536 25.37 63.6203 25.19C63.9936 25.0033 64.357 24.7233 64.7103 24.35V22.62ZM59.0503 18.17C60.2303 17.09 61.6503 16.55 63.3103 16.55C63.9103 16.55 64.447 16.65 64.9203 16.85C65.3936 17.0433 65.7936 17.3167 66.1203 17.67C66.447 18.0167 66.6936 18.4333 66.8603 18.92C67.0336 19.4067 67.1203 19.94 67.1203 20.52V27H66.0003C65.767 27 65.587 26.9667 65.4603 26.9C65.3336 26.8267 65.2336 26.6833 65.1603 26.47L64.9403 25.73C64.6803 25.9633 64.427 26.17 64.1803 26.35C63.9336 26.5233 63.677 26.67 63.4103 26.79C63.1436 26.91 62.857 27 62.5503 27.06C62.2503 27.1267 61.917 27.16 61.5503 27.16C61.117 27.16 60.717 27.1033 60.3503 26.99C59.9836 26.87 59.667 26.6933 59.4003 26.46C59.1336 26.2267 58.927 25.9367 58.7803 25.59C58.6336 25.2433 58.5603 24.84 58.5603 24.38C58.5603 24.12 58.6036 23.8633 58.6903 23.61C58.777 23.35 58.917 23.1033 59.1103 22.87C59.3103 22.6367 59.567 22.4167 59.8803 22.21C60.1936 22.0033 60.577 21.8233 61.0303 21.67C61.4903 21.5167 62.0236 21.3933 62.6303 21.3C63.237 21.2 63.9303 21.14 64.7103 21.12V20.52C64.7103 19.8333 64.5636 19.3267 64.2703 19C63.977 18.6667 63.5536 18.5 63.0003 18.5C62.6003 18.5 62.267 18.5467 62.0003 18.64C61.7403 18.7333 61.5103 18.84 61.3103 18.96C61.1103 19.0733 60.927 19.1767 60.7603 19.27C60.6003 19.3633 60.4203 19.41 60.2203 19.41C60.047 19.41 59.9003 19.3667 59.7803 19.28C59.6603 19.1867 59.5636 19.08 59.4903 18.96L59.0503 18.17ZM72.7298 27.16C71.8365 27.16 71.1498 26.91 70.6698 26.41C70.1965 25.9033 69.9598 25.2067 69.9598 24.32V18.59H68.9098C68.7765 18.59 68.6632 18.5467 68.5698 18.46C68.4765 18.3733 68.4298 18.2433 68.4298 18.07V17.09L70.0798 16.82L70.5998 14.02C70.6332 13.8867 70.6965 13.7833 70.7898 13.71C70.8832 13.6367 71.0032 13.6 71.1498 13.6H72.4298V16.83H75.1698V18.59H72.4298V24.15C72.4298 24.47 72.5065 24.72 72.6598 24.9C72.8198 25.08 73.0365 25.17 73.3098 25.17C73.4632 25.17 73.5898 25.1533 73.6898 25.12C73.7965 25.08 73.8865 25.04 73.9598 25C74.0398 24.96 74.1098 24.9233 74.1698 24.89C74.2298 24.85 74.2898 24.83 74.3498 24.83C74.4232 24.83 74.4832 24.85 74.5298 24.89C74.5765 24.9233 74.6265 24.9767 74.6798 25.05L75.4198 26.25C75.0598 26.55 74.6465 26.7767 74.1798 26.93C73.7132 27.0833 73.2298 27.16 72.7298 27.16ZM79.2213 17.84C79.6213 17.4667 80.0613 17.1633 80.5413 16.93C81.0213 16.6967 81.5846 16.58 82.2313 16.58C82.7913 16.58 83.2879 16.6767 83.7213 16.87C84.1546 17.0567 84.5146 17.3233 84.8013 17.67C85.0946 18.01 85.3146 18.42 85.4613 18.9C85.6146 19.3733 85.6913 19.8967 85.6913 20.47V27H83.2213V20.47C83.2213 19.8433 83.0779 19.36 82.7913 19.02C82.5046 18.6733 82.0679 18.5 81.4813 18.5C81.0546 18.5 80.6546 18.5967 80.2813 18.79C79.9079 18.9833 79.5546 19.2467 79.2213 19.58V27H76.7513V12.14H79.2213V17.84ZM94.6503 20.69C94.6503 20.37 94.6036 20.07 94.5103 19.79C94.4236 19.5033 94.2903 19.2533 94.1103 19.04C93.9303 18.8267 93.7003 18.66 93.4203 18.54C93.147 18.4133 92.827 18.35 92.4603 18.35C91.747 18.35 91.1836 18.5533 90.7703 18.96C90.3636 19.3667 90.1036 19.9433 89.9903 20.69H94.6503ZM89.9403 22.18C89.9803 22.7067 90.0736 23.1633 90.2203 23.55C90.367 23.93 90.5603 24.2467 90.8003 24.5C91.0403 24.7467 91.3236 24.9333 91.6503 25.06C91.9836 25.18 92.3503 25.24 92.7503 25.24C93.1503 25.24 93.4936 25.1933 93.7803 25.1C94.0736 25.0067 94.327 24.9033 94.5403 24.79C94.7603 24.6767 94.9503 24.5733 95.1103 24.48C95.277 24.3867 95.437 24.34 95.5903 24.34C95.797 24.34 95.9503 24.4167 96.0503 24.57L96.7603 25.47C96.487 25.79 96.1803 26.06 95.8403 26.28C95.5003 26.4933 95.1436 26.6667 94.7703 26.8C94.4036 26.9267 94.027 27.0167 93.6403 27.07C93.2603 27.1233 92.8903 27.15 92.5303 27.15C91.817 27.15 91.1536 27.0333 90.5403 26.8C89.927 26.56 89.3936 26.21 88.9403 25.75C88.487 25.2833 88.1303 24.71 87.8703 24.03C87.6103 23.3433 87.4803 22.55 87.4803 21.65C87.4803 20.95 87.5936 20.2933 87.8203 19.68C88.047 19.06 88.3703 18.5233 88.7903 18.07C89.217 17.61 89.7336 17.2467 90.3403 16.98C90.9536 16.7133 91.6436 16.58 92.4103 16.58C93.057 16.58 93.6536 16.6833 94.2003 16.89C94.747 17.0967 95.217 17.4 95.6103 17.8C96.0036 18.1933 96.3103 18.68 96.5303 19.26C96.757 19.8333 96.8703 20.49 96.8703 21.23C96.8703 21.6033 96.8303 21.8567 96.7503 21.99C96.6703 22.1167 96.517 22.18 96.2903 22.18H89.9403Z" fill="#090B20"/>
<defs>
<filter id="filter0_d_7_1293" x="0.4" y="0" width="43.2" height="43.2" filterUnits="userSpaceOnUse" color-interpolation-filters="sRGB">
<feFlood flood-opacity="0" result="BackgroundImageFix"/>
<feColorMatrix in="SourceAlpha" type="matrix" values="0 0 0 0 0 0 0 0 0 0 0 0 0 0 0 0 0 0 127 0" result="hardAlpha"/>
<feOffset dy="1.6"/>
<feGaussianBlur stdDeviation="2.8"/>
<feComposite in2="hardAlpha" operator="out"/>
<feColorMatrix type="matrix" values="0 0 0 0 0 0 0 0 0 0.870588 0 0 0 0 0.713726 0 0 0 0.25 0"/>
<feBlend mode="normal" in2="BackgroundImageFix" result="effect1_dropShadow_7_1293"/>
<feBlend mode="normal" in="SourceGraphic" in2="effect1_dropShadow_7_1293" result="shape"/>
</filter>
</defs>
</svg>
